<?xml version="1.0" standalone="no"?>
<!DOCTYPE svg PUBLIC "-//W3C//DTD SVG 1.1//EN" "http://www.w3.org/Graphics/SVG/1.1/DTD/svg11.dtd">
<svg xmlns="http://www.w3.org/2000/svg">
<metadata>Copyright (C) 2015 by original authors @ fontello.com</metadata>
<defs>
<font id="fontello" horiz-adv-x="1000" >
<font-face font-family="fontello" font-weight="400" font-stretch="normal" units-per-em="1000" ascent="850" descent="-150" />
<missing-glyph horiz-adv-x="1000" />
<glyph glyph-name="w" unicode="&#xe800;" d="m297 328c4 10 5 21 5 35 0 18-3 32-8 42-6 10-18 15-35 15h-35v-118h35c18-1 31 8 38 26z m243 323h-303c-23 0-42-20-42-43v-90h-172c-9 0-11-3-11-11v-281c0-9 1-11 11-11h139c7 0 13-1 19-1 5 0 9 0 14 1v-123c0-23 19-43 42-43h416c23 0 42 19 42 43v395c0 135-151 163-155 164z m-387-302c-10-9-26-14-45-14h-38v-65h-38v182h78c18 0 32-5 43-14 11-10 16-24 16-44 0-21-5-37-16-45z m501 190c-9 4-21 7-35 7h-39c1 16-1 43-9 65 28-12 65-33 83-72z m-467-269v182h78c12 0 21-2 29-4 12-4 23-12 31-23 6-9 10-19 13-30 2-10 3-20 3-30 0-24-5-44-15-61-13-23-33-34-61-34h-78z m479-178c0-7-6-13-13-13h-416c-7 0-12 6-12 13v123h263c2 0 4 0 7 0 8 0 10 2 10 11v279c0 12-1 13-13 13h-267v90c0 7 5 13 12 13h288c4 0 7-1 10-5 15-15 17-59 15-84l-1-16h70c40 0 46-28 47-31v-393z m-191 286v-32h-80v-76h-38v181h130v-32h-92v-41h80z m-371 42h-34v-53h34c9 0 15 2 20 6 5 5 7 11 7 21 0 9-2 16-7 20-5 4-11 6-20 6z" horiz-adv-x="707" />
<glyph glyph-name="o" unicode="&#xe801;" d="m444 649h127v-533h-127z m-154-139h127v-394h-127z m-154-112h127v-282h-127z m-100-305h635v-42h-635z" horiz-adv-x="707" />
<glyph glyph-name="i" unicode="&#xe802;" d="m598 621h-473l-122-261h80v-281h190v171h161v-171h190v281h81" horiz-adv-x="707" />
<glyph glyph-name="a" unicode="&#xe803;" d="m702 109c-24 17-48 34-72 53-3 2-6 4-9 6-1 37 0 103 0 136 0 65 0 129 0 193 0 20-10 30-29 30-56 0-111 0-167 0-8 16-17 33-25 49-4 8-12 13-21 17-6 3-12 5-18 7-26 8-51 16-77 24-9 3-18 5-28 3-2 0-3-1-5-1-35-19-71-37-106-56-3-2-7-5-10-8-9-10-14-22-15-35h-4c-26 0-34-8-34-34 0-95 0-228 0-325-28-19-55-40-82-59l0-13c1-20 0-29 0-29 34 0 98 0 132 0 148 0 296 0 445 0 33 0 92 0 125 0 0 0 2 25 0 42z m-563 424c2 10 8 17 17 22 31 16 62 32 92 48 5 2 9 1 13-2 2-2 5-5 6-8 9-15 17-31 25-47 1-1 2-3 3-5 4-5 11-8 17-5 7 4 14 7 20 11 10 5 19 9 29 14 2 1 5 3 8 3 7 2 11 0 16-6 1-1 1-2 2-4 5-9 9-18 14-27 6-10 11-21 17-32 18-35 36-70 54-105 5-10 6-20 2-30-3-6-8-11-15-14-2-2-5-3-8-4v0h-220c-9 18-19 36-28 54-17 33-34 66-51 99-3 5-6 11-8 16-3 5-5 11-5 16 0 2 0 4 0 6z m-26-68c0 16 4 25 15 28 20-39 41-79 61-118 9-19 19-37 29-56h25 165 43 1c6 3 12 6 19 9 3 3 6 6 9 9 17 17 21 42 9 64-15 32-32 63-48 94h120c19 0 28-9 28-28 0-48 0-95 0-143 0-23-1-46-1-70 0-11 1-23 1-34 0-18-9-27-27-27-70 0-141 0-211 0h-212c-17 0-26 9-26 27 0 25 1 51 1 76 0 56-1 113-1 169z" horiz-adv-x="707" />
<glyph glyph-name="b" unicode="&#xe804;" d="m614 613c-8 22-29 38-54 38h-413c-25 0-46-16-53-38l-79-225v-301c0-21 17-38 38-38h37c21 0 38 17 38 38v38h451v-38c0-21 17-38 37-38h38c21 0 37 17 37 38v301l-77 225z m-467-376c-31 0-57 25-57 57s26 56 57 56 56-25 56-56-25-57-56-57z m413 0c-31 0-56 25-56 57s25 56 56 56 57-25 57-56-26-57-57-57z m-469 188l56 169h413l57-169h-526z" horiz-adv-x="707" />
<glyph glyph-name="c" unicode="&#xe805;" d="m701 422l-200 200c-7 7-18 7-25 0l-163-160-1 0-64 29c-13 5-28 3-38-7l-108-99c-8-7-12-16-12-26v-157c0-19 16-35 36-35h137l88-89c4-3 8-5 13-5 5 0 9 2 12 5l325 319c3 3 4 11 5 12 0 5-2 9-5 13z m-337-307l-175 176 102 103 2 0 105-46 34 59-85 40 141 137 175-175-299-294z" horiz-adv-x="707" />
<glyph glyph-name="d" unicode="&#xe806;" d="m406 652h-211c-29 0-52-24-52-53l-1-422c0-30 24-53 53-53h317c29 0 53 23 53 53v316l-159 159z m53-423h-211v53h211v-53z m0 106h-211v53h211v-53z m-79 132v145l145-145h-145z" horiz-adv-x="707" />
<glyph glyph-name="e" unicode="&#xe807;" d="m300 648h34v-41c21-4 38-10 53-18 15-8 31-21 47-38l-49-34c-15 13-32 23-51 30v-88c21-6 38-12 50-19 20-11 36-25 46-41 11-17 17-36 17-57 0-17-4-32-11-47-7-15-16-27-29-36-12-9-25-16-39-20-7-2-19-4-34-5v-63h-35v63c-19 2-35 6-49 12-13 6-26 13-38 24-10 8-20 20-31 36l51 35c20-28 42-44 67-48v101c-26 6-47 15-63 26-16 11-28 25-35 40-8 15-11 31-11 46 0 12 3 25 9 39 6 13 15 24 26 34 12 9 24 16 38 21 8 3 20 5 36 8v40z m0-181v83c-18-3-31-8-39-16-8-8-12-17-12-26 0-9 3-17 10-23 6-7 20-13 41-18z m34-81v-95c17 2 30 8 38 16 8 9 13 19 13 31 0 10-4 19-12 28-7 8-20 15-39 20z m364-128l-69 19c-53-141-177-225-318-225-124 0-240 73-302 190l56 30c51-97 145-156 246-156 110 0 209 70 256 178l-79 23 165 133 45-192z" horiz-adv-x="707" />
<glyph glyph-name="f" unicode="&#xe808;" d="m402 587v-62c90-21 158-101 162-197v-14c-4-111-93-200-203-203h-15c-110 3-199 92-202 203v14c3 96 71 176 161 197v62c-127-22-223-133-223-266 0-150 122-271 272-271 149 0 271 121 271 271 0 133-96 244-223 266z m-21 64v-237c0-14-11-26-25-28-1 0-2 0-2 0-1 0-2 0-3 0-14 2-25 14-25 28v237h55z" horiz-adv-x="707" />
<glyph glyph-name="g" unicode="&#xe809;" d="m93 512c0 41 12 73 35 99 24 25 54 38 90 38 36 0 65-13 87-38s32-61 32-106c0-42-11-76-34-102-23-25-52-38-88-38-81 0-122 49-122 147z m120-461h-77l363 598h77l-363-598z m-46 458c0-27 4-47 12-61 9-15 19-22 32-22 35 0 53 28 53 82 0 53-16 79-47 79-34 0-50-26-50-78z m203-310c0 40 12 72 35 98 24 25 54 38 90 38 37 0 65-12 87-38 21-25 32-60 32-105 0-43-11-77-34-102-23-26-52-39-88-39-81 0-122 49-122 148z m74-4c0-26 4-47 12-61 8-14 19-21 32-21 35 0 53 27 53 82 0 52-16 79-47 79-34 0-50-26-50-79z" horiz-adv-x="707" />
<glyph glyph-name="h" unicode="&#xe80a;" d="m593 590c0 33-26 60-60 60h-239l-180-180v-360c0-33 27-60 60-60h360c33 0 59 27 59 60l0 480z m-434-150l165 165v-165h-165z m362-114l-117-191-90 61c-9 7-11 20-5 29 7 9 19 12 29 5l53-36 95 154c6 9 19 12 28 7 10-7 13-19 7-29z" horiz-adv-x="707" />
<glyph glyph-name="j" unicode="&#xe80b;" d="m278 651v-146c5-1 10-2 14-3 69-17 118-79 118-152 0-43-17-82-46-111 16-4 31-10 45-16 50-22 82-51 95-87 4-12 6-24 6-36v-50h144v600l-376 1z m176-134h-67v67h67v-67z m134-267h-67v67h67v-67z m0 133h-67v67h67v-67z m0 134h-67v67h67v-67z m-134-417v-50h-401v50c0 56 96 89 166 98 0 0 0 0 0 0 13 1 24 2 34 2 8 0 16-1 25-1 3-1 6-1 10-2 0 0 0 0 0 0 31-3 68-12 99-25 31-14 56-32 64-55 2-6 3-11 3-17z m-100 250c0-45-30-83-71-96-2 0-4-1-5-1-8-2-16-3-24-3-11 0-21 2-31 5-40 13-70 51-70 95 0 56 45 101 101 101 8 0 16-1 24-3 43-11 76-50 76-98z" horiz-adv-x="707" />
<glyph glyph-name="k" unicode="&#xe80c;" d="m662 404h-247v197c0 10-9 19-19 19h-373c-10 0-18-9-18-19v-454c0-10 8-18 18-18h275l0-8c0-22 18-41 40-41h324c22 0 40 19 40 41v243c0 22-18 40-40 40z m-620 179h336v-418h-336v418z m620-260l-162-101-85 54v40l85-53 162 101v-41z" horiz-adv-x="707" />
<glyph glyph-name="l" unicode="&#xe80d;" d="m573 651h-438c-29 0-51-23-51-52v-498c0-29 22-52 51-52h438c28 0 51 23 51 52v498c0 29-23 52-51 52z m-374-431v208h18l98-125v125h36v-211h-15l-101 132v-129h-36z m230 49c10-13 24-20 41-20 20 0 35 7 46 21l17-30c-15-16-37-24-66-24-29 0-52 10-68 29-16 19-24 45-24 79 0 30 9 56 27 77 18 21 41 31 69 31 23 0 43-5 57-15l-15-30c-8 8-22 12-40 12-18 0-32-7-43-22-11-14-16-33-16-55-1-22 5-40 15-53z" horiz-adv-x="707" />
<glyph glyph-name="m" unicode="&#xe80e;" d="m633 629h-559c-38 0-69-31-69-70l0-418c0-39 31-70 69-70h559c38 0 69 31 69 70v418c1 39-31 70-69 70z m0-139l-279-175-280 175v69l280-174 279 174v-69z" horiz-adv-x="707" />
<glyph glyph-name="n" unicode="&#xe80f;" d="m353 79c-101 0-202 0-303 0-34 0-49 14-49 49 0 148 0 297 0 446 0 33 15 47 48 47 203 0 406 0 609 0 33 0 48-14 48-48 0-149 0-298 0-447 0-32-15-47-47-47-102 0-204 0-306 0z m1 506c-96 0-192 0-288 0-23 0-25-3-25-25 0-140 0-280 0-420 0-22 2-24 25-24 192 0 383 0 575 0 23 0 25 2 25 24 0 140 0 280 0 420 0 22-2 25-25 25-95 0-191 0-287 0z m-165-29c35 0 67 0 100 0 0-137 0-273 0-411-33 0-65 0-100 0 0 137 0 273 0 411z m315 0c34 0 65 0 99 0 0-137 0-273 0-411-32 0-64 0-99 0 0 136 0 273 0 411z m-420 0c17 0 31 0 47 0 0-138 0-274 0-412-16 0-31 0-47 0 0 137 0 274 0 412z m361-412c-16 0-30 0-45 0 0 137 0 274 0 411 14 0 28 0 45 0 0-136 0-273 0-411z" horiz-adv-x="707" />
<glyph glyph-name="p" unicode="&#xe810;" d="m414 651h-241c-33 0-60-27-60-60l0-482c0-33 26-60 60-60h361c33 0 60 27 60 60v362l-180 180z m60-482h-241v61h241v-61z m0 121h-241v60h241v-60z m-90 150v166l165-166h-165z" horiz-adv-x="707" />
<glyph glyph-name="q" unicode="&#xe811;" d="m592 585h-62v46c0 11-9 20-19 20h-397c-10 0-19-9-19-20v-482c0-11 9-20 19-20h51v-60c0-11 9-20 20-20h407c11 0 20 9 20 20v496c0 11-9 20-20 20z m-458 27h357v-444h-357v444z m438-523h-367v40h306c10 0 19 9 19 20v396h42v-456z" horiz-adv-x="707" />
<glyph glyph-name="r" unicode="&#xe812;" d="m654 272v156h-53c-4 15-10 29-17 42l37 37-110 111-38-38c-13 7-27 13-41 18v53h-157v-53c-14-5-28-11-41-18l-38 38-110-111 37-37c-7-13-12-27-17-42h-53v-156h53c5-15 10-29 17-42l-37-37 110-111 38 38c13-7 27-13 41-18v-53h156v53c15 5 29 11 42 18l38-38 110 111-37 37c7 13 12 27 17 42h53z m-300-93c-95 0-171 77-171 171 0 94 76 171 171 171 94 0 170-76 170-171 0-94-76-171-170-171z" horiz-adv-x="707" />
<glyph glyph-name="s" unicode="&#xe813;" d="m51 651v-602h605v602h-605z m37-565v391h532v-391h-532z m104 188c0 15 10 26 24 26 15 0 24-11 24-26 0-14-9-25-24-25-14 0-24 11-24 25z m143 0c0 15 9 26 24 26 14 0 24-11 24-26 0-14-10-25-25-25-14 0-24 11-23 25z m142 0c0 15 10 26 24 26 15 0 24-11 24-26 0-14-9-25-24-25-14 0-24 11-24 25z m-285 109c0 16 10 27 24 27 15 0 24-11 24-27 0-14-9-25-24-25-14 0-24 11-24 25z m143 0c0 16 9 27 24 27 14 0 24-11 24-27 0-14-10-25-25-25-14 0-24 11-23 25z m142 0c0 16 10 27 24 27 15 0 24-11 24-27 0-14-9-25-24-25-14 0-24 11-24 25z m-285-219c0 15 10 26 24 26 15 0 24-11 24-26 0-14-9-25-24-25-14 0-24 10-24 25z m143 0c0 15 9 26 24 26 14 0 24-11 24-26 0-14-10-25-25-25-14 0-24 10-23 25z m142 0c0 15 10 26 24 26 15 0 24-11 24-26 0-14-9-25-24-25-14 0-24 10-24 25z" horiz-adv-x="707" />
<glyph glyph-name="t" unicode="&#xe814;" d="m345 358v293h-238c-30 0-54-25-54-54v-239h292z m-199 150h47v49h22v-49h47v-21h-47v-50h-22v50h-47v21z m199-166h-292v-238c0-30 24-54 54-54h238v292z m-107-203l-34 34-35-35-15 15 35 35-33 34 14 15 34-34 34 35 16-16-35-34 34-34-15-15z m362 512h-238v-293h292v239c0 29-24 54-54 54z m-28-164h-47-22-47v21h47 22 47v-21z m-210-145v-292h238c30 0 54 24 54 54v238h-292z m167-154l-15-15-33-34-15 15 33 34 15 15 34 33 15-15-34-33z" horiz-adv-x="707" />
<glyph glyph-name="u" unicode="&#xe815;" d="m354 651c-166 0-300-135-300-301 0-166 134-301 300-301 165 0 299 135 299 301 0 166-134 301-299 301z m0-534c-129 0-232 104-232 233 0 129 103 233 232 233 128 0 232-104 232-233 0-129-104-233-232-233z m32 372c0-19-15-34-34-34-19 0-34 15-34 34 0 19 15 35 34 35 19 0 34-16 34-35z" horiz-adv-x="707" />
<glyph glyph-name="v" unicode="&#xe816;" d="m540 651h-303c-23 0-42-20-42-43v-90h-172c-9 0-11-2-11-11v-281c0-9 2-11 11-11 18 0 90 0 172 0v-123c0-24 19-43 42-43h416c23 0 42 19 42 43v395c0 134-151 163-155 164z m114-112c-9 4-21 7-35 7h-39c0 16-1 42-9 64 28-11 65-32 83-71z m-628-296v248c0 11 1 12 12 12h439c13 0 13 0 13-13v-247c0-13 0-13-13-13h-438c-12 0-13 1-13 13z m639-151c0-7-5-13-12-13h-416c-7 0-12 6-12 13v123c126 0 263 0 263 0 2 0 5-1 7 0 12-2 12 1 11 11l0 279c0 12-2 13-13 13h-268v90c0 7 5 13 12 13h288c4 0 7-2 10-5 15-16 17-60 15-84l-1-16h70c38 0 45-26 46-31v-393z m-196 398h-421c-9 0-9 0-9-9v-229c0-9 0-9 9-9h421c8 0 8 0 8 9v230c0 8 0 8-8 8z m-311-216c-1 0-3 3-4 5-10 18-20 36-30 54-2 2-3 4-5 7-10-18-20-35-29-53-5-11-12-16-24-14-5 1-11 0-18 0 2 4 3 6 4 8 16 28 31 56 47 84 2 4 3 8 0 12-12 21-24 43-36 64-1 2-2 4-3 5 2 4 4 7 5 11 7 0 14 1 21 0 2 0 4-3 6-5 8-15 17-31 26-46 1-2 2-4 3-6 10 17 20 34 29 51 2 5 5 7 11 6 9 0 17 0 27 0-2-3-3-5-4-7-14-26-28-51-43-76-2-4-2-7 0-10 16-28 31-55 46-83 1-2 2-4 4-7-12 0-22-1-33 0z m184 0c-9 0-18-1-28 0 0 0-2 4-2 6 0 33 0 65 0 98v11h-1c-2-7-4-13-6-19-6-19-12-38-18-58-1-4-3-6-8-6-5 1-10 1-15 0-5 0-7 2-9 7-7 24-15 48-22 72-1 1-1 2-2 4 0-3 0-5 0-6 0-34 0-68 0-101 0-7-2-9-8-9-6 1-12 1-18 0-4 0-5 2-5 6v160c0 5 0 10 3 15 3 4 5 3 5 3 10 0 18 1 28 0 1 0 4-3 5-6 9-30 19-60 28-90 1-1 1-3 2-6 11 33 21 64 31 96 1 5 3 7 8 6 11 0 21 0 32 0v-183z m128 5c0-3-1-6-5-6h-90c-5 0-6 2-6 6v167c0 2 2 4 3 5 1 2 3 4 5 6h23v-8c0-45 0-90 0-134 0-7 1-9 8-9 18 1 37 0 56 1 4 0 6-2 6-6 0-8 0-15 0-22z" horiz-adv-x="707" />
</font>
</defs>
</svg>
