<!-- Generator: Adobe Illustrator 18.1.1, SVG Export Plug-In  -->
<svg version="1.1"
	 xmlns="http://www.w3.org/2000/svg" xmlns:xlink="http://www.w3.org/1999/xlink" xmlns:a="http://ns.adobe.com/AdobeSVGViewerExtensions/3.0/"
	 x="0px" y="0px" width="243.281px" height="87.57px" viewBox="0 0 243.281 87.57" enable-background="new 0 0 243.281 87.57"
	 xml:space="preserve">
<defs>
</defs>
<g>
	<polygon fill="#E2231A" points="111.573,16.299 114.694,0.262 98.648,0.262 	"/>
	<polygon fill="#FFFFFF" points="88.683,59.342 96.858,16.322 111.565,16.322 103.4,59.342 	"/>
	<path fill="#FFFFFF" d="M62.734,26.043h4.586c5.8,0,10.301-3.322,10.301-8.478c0-4.018-3.635-5.854-7.876-5.854
		c-2.077,0-3.464,0.174-4.331,0.349L62.734,26.043z M52.781,1.572C56.851,0.614,63.254,0,69.657,0
		c5.369,0,11.424,0.524,15.922,3.061c4.158,2.183,7.362,6.115,7.362,12.232c0,8.738-5.365,13.81-12.895,16.432l-0.088,0.353
		c3.199,1.656,4.586,5.242,5.193,10.31c0.776,5.948,1.298,14.507,2.425,16.955H72.429c-0.522-1.749-1.13-6.292-1.817-13.811
		c-0.524-6.728-2.773-8.387-7.27-8.387h-2.685l-4.153,22.199H41.876L52.781,1.572z"/>
	<path fill="#FFFFFF" d="M4.846,43.164c3.547,1.955,8.743,3.574,14.367,3.574c4.068,0.087,7.786-1.443,7.786-4.853
		c0-2.81-2.593-4.429-7.613-6.983C13.762,31.918,7.094,27.49,7.094,19.569c0-12.178,10.819-19.418,24.411-19.418
		c7.705,0,11.854,1.447,14.623,2.727l-4.497,12.176c-1.989-0.935-6.32-2.554-11.165-2.379c-5.28,0-7.788,2.04-7.788,4.509
		c0,2.727,3.89,4.515,8.307,6.983c7.095,3.578,11.769,8.263,11.769,15.077c0,13.967-12.024,20.017-24.925,20.017
		C8.74,59.09,2.857,57.046,0,55.085L4.846,43.164z"/>
</g>
<g>
	<path fill="#FFFFFF" d="M130.814,47.437c0.702-1.037,1.373,0.454-0.287,3.047c-0.559,0.907-4.721,7.78-9.641,7.715
		c-5.885-0.129-6.062-4.797-5.536-8.233c0.526-3.437,4.437-10.374,7.749-8.169c2.456,1.75,0.606,4.862-0.569,7.197
		c-1.343,2.658-3.412,4.862-4.447,5.964c0.524,0.519,1.517,0.908,2.619,0.908C125.37,55.866,128.879,50.16,130.814,47.437z
		 M121.593,43.612c-1.273-0.195-4.647,6.029-4.23,9.725c2.416-2.398,2.744-3.566,3.507-5.122
		C121.879,46.206,122.73,43.871,121.593,43.612z"/>
	<path fill="#FFFFFF" d="M132.317,47.891c-0.194,0-0.768,1.037-1.79,2.593c-0.514,0.519-1.432-0.519-0.713-1.686
		c0.471-0.713,0.935-1.361,1.702-2.398c0.782-1.167,2.479-1.816,3.067,0.389c0.716,2.788-1.693,7.391-0.435,7.715
		c0.95,0.195,4.801-7.91,5.613-9.336c0.748-1.426,2.159-1.297,3.055-0.065c0.796,0.972-4.234,10.309,0.843,10.698
		c3.918,0.324,7.572-5.511,9.377-8.234c0.703-1.038,1.374,0.454-0.221,3.047c-0.559,0.908-4.547,7.391-9.387,7.197
		c-6.656-0.195-3.079-8.169-4.022-8.428c-0.504-0.13-2.993,7.975-6.212,7.78c-2.506-0.194-1.315-4.344-0.822-6.938
		C132.659,48.864,132.771,47.891,132.317,47.891z"/>
	<path fill="#FFFFFF" d="M174.367,47.567c0.769-1.038,1.439,0.454-0.213,2.982c-0.559,0.908-4.815,8.039-11.067,7.715
		c-7.605-0.389-6.822-8.882-5.937-16.014c0.788-6.289,6.027-19.126,10.982-18.802c3.154,0.195,3.873,4.085,2.169,10.438
		c-2.225,8.623-8.259,17.116-10.61,19.515c0.958,1.815,2.452,2.917,4.332,2.917C168.757,56.319,172.562,50.29,174.367,47.567z
		 M167.792,25.848c-2.441-0.195-6.86,7.78-8.711,16.532c-0.501,2.658-0.627,7.132-0.053,9.466c3.931-4.862,5.26-7.391,8.654-16.597
		C168.329,33.563,170.241,25.977,167.792,25.848z"/>
	<path fill="#FFFFFF" d="M177.156,58.264c-5.064,0.065-4.889-5.965-4.625-7.131c0.294-1.427,1.148-4.344,1.148-4.344
		c0.589-1.167,2.583-1.038,2.449,0.129c-0.038,0.324-3.554,9.466,1.533,9.206c3.451-0.129,7.365-5.964,9.17-8.688
		c0.711-1.102,1.446,0.389-0.149,2.982C186.124,51.327,181.76,58.264,177.156,58.264z M179.447,36.674
		c0.841-1.102,1.107-1.167,1.774-0.194c0.723,1.038-0.217,1.88-0.217,1.88s-1.581,2.463-2.314,3.76
		c-0.732,1.297-1.368,1.75-1.899,1.297c-0.474-0.389-0.361-1.361-0.274-1.556C176.683,41.538,179.063,37.194,179.447,36.674z"/>
	<path fill="#FFFFFF" d="M188.529,47.891c-0.194,0-0.768,1.037-1.789,2.593c-0.515,0.519-1.432-0.519-0.714-1.686
		c0.471-0.713,0.935-1.361,1.702-2.398c0.783-1.167,2.479-1.816,3.067,0.389c0.716,2.788-1.693,7.391-0.434,7.715
		c0.95,0.195,4.8-7.91,5.612-9.336c0.748-1.426,2.159-1.297,3.055-0.065c0.796,0.972-4.233,10.309,0.844,10.698
		c3.918,0.324,7.571-5.511,9.376-8.234c0.703-1.038,1.374,0.454-0.221,3.047c-0.559,0.908-4.547,7.391-9.387,7.197
		c-6.655-0.195-3.079-8.169-4.022-8.428c-0.503-0.13-2.993,7.975-6.212,7.78c-2.506-0.194-1.315-4.344-0.822-6.938
		C188.872,48.864,188.983,47.891,188.529,47.891z"/>
	<path fill="#FFFFFF" d="M218.407,47.437c0.702-1.037,1.373,0.454-0.286,3.047c-0.559,0.907-4.722,7.78-9.642,7.715
		c-5.885-0.129-6.062-4.797-5.535-8.233c0.525-3.437,4.437-10.374,7.748-8.169c2.456,1.75,0.606,4.862-0.569,7.197
		c-1.343,2.658-3.412,4.862-4.447,5.964c0.524,0.519,1.517,0.908,2.619,0.908C212.963,55.866,216.473,50.16,218.407,47.437z
		 M209.186,43.612c-1.273-0.195-4.648,6.029-4.231,9.725c2.416-2.398,2.745-3.566,3.507-5.122
		C209.472,46.206,210.324,43.871,209.186,43.612z"/>
	<path fill="#FFFFFF" d="M228.342,58.005c-3.897,0.065-4.026-3.89-4.026-3.89s-2.826,4.279-5.088,4.214
		c-1.231,0-4.217-1.103-2.737-7.197c1.479-6.095,5.878-8.818,7.945-8.753c3.745,0.13,3.047,3.372,2.945,3.695
		c-0.713,1.686-1.309,1.232-1.74,1.038c0,0,0.702-2.723-1.494-2.788c-1.873-0.065-4.081,2.788-5.065,5.706
		c-1.058,2.982-0.954,6.029,0.602,6.029c2.399,0,5.155-6.483,5.603-8.104c0.203-0.648,2.543-0.129,2.294,0.908
		c-0.064,0-3.197,6.937,1.146,6.937c1.944,0,4.705-2.01,8.864-8.299c0.703-1.038,1.439,0.454-0.213,2.982
		C236.036,52.559,232.174,57.941,228.342,58.005z"/>
</g>
</svg>